<svg width="51" height="51" viewBox="0 0 51 51" fill="none" xmlns="http://www.w3.org/2000/svg">
<path d="M8.83325 26.5415V40.0832C8.83325 41.8091 10.2324 43.2082 11.9583 43.2082H39.0416C40.7675 43.2082 42.1666 41.8091 42.1666 40.0832V26.5415" stroke="black" stroke-width="2" stroke-linecap="round" stroke-linejoin="round"/>
<path d="M5.70825 16.1248C5.70825 14.9742 6.64099 14.0415 7.79159 14.0415H43.2083C44.3589 14.0415 45.2916 14.9742 45.2916 16.1248V24.4582C45.2916 25.6088 44.3589 26.5415 43.2083 26.5415H7.79159C6.64099 26.5415 5.70825 25.6088 5.70825 24.4582V16.1248Z" fill="#2F88FF" stroke="black" stroke-width="2" stroke-linejoin="round"/>
<path d="M32.7916 14.0415V9.87484C32.7916 8.72424 31.8589 7.7915 30.7083 7.7915H20.2916C19.141 7.7915 18.2083 8.72424 18.2083 9.87484V14.0415" stroke="black" stroke-width="2" stroke-linecap="round" stroke-linejoin="round"/>
<path d="M16.125 24.458V30.708" stroke="black" stroke-width="2" stroke-linecap="round" stroke-linejoin="round"/>
<path d="M34.875 24.458V30.708" stroke="black" stroke-width="2" stroke-linecap="round" stroke-linejoin="round"/>
</svg>
