<svg width="50" height="51" viewBox="0 0 50 51" fill="none" xmlns="http://www.w3.org/2000/svg">
<path d="M38.8828 25.4922H11.1094C8.11328 25.4922 5.66406 28.1016 5.66406 31.293C5.66406 34.4844 8.11328 37.0938 11.1094 37.0938H38.8867C41.8828 37.0938 44.332 34.4844 44.332 31.293C44.332 28.1016 41.8789 25.4922 38.8828 25.4922Z" fill="#E59600"/>
<path d="M25 5.33984C16.1562 5.33984 7.96484 14.7969 7.96484 28.4102C7.96484 41.9492 16.4062 48.6406 25 48.6406C33.5938 48.6406 42.0352 41.9492 42.0352 28.4102C42.0352 14.8008 33.8438 5.33984 25 5.33984Z" fill="#FFCA28"/>
<path d="M16.6484 32.1992C18.0313 32.1992 19.1523 31.038 19.1523 29.6055C19.1523 28.173 18.0313 27.0117 16.6484 27.0117C15.2656 27.0117 14.1445 28.173 14.1445 29.6055C14.1445 31.038 15.2656 32.1992 16.6484 32.1992Z" fill="#404040"/>
<path d="M33.3516 32.1992C34.7344 32.1992 35.8555 31.038 35.8555 29.6055C35.8555 28.173 34.7344 27.0117 33.3516 27.0117C31.9687 27.0117 30.8477 28.173 30.8477 29.6055C30.8477 31.038 31.9687 32.1992 33.3516 32.1992Z" fill="#404040"/>
<path d="M26.9609 34.3008C26.9085 34.2791 26.8533 34.2646 26.7969 34.2578H23.2031C23.1484 34.2656 23.0938 34.2773 23.0391 34.3008C22.7149 34.4336 22.5352 34.7695 22.6875 35.1289C22.8438 35.4883 23.5586 36.4961 25 36.4961C26.4414 36.4961 27.1563 35.4883 27.3125 35.1289C27.4649 34.7734 27.2852 34.4336 26.9609 34.3008Z" fill="#E59600"/>
<path d="M29.2773 38.3713C27.6601 39.3323 22.3515 39.3323 20.7344 38.3713C19.8047 37.8166 18.8554 38.6643 19.2422 39.508C19.6211 40.3401 22.5156 42.2658 25.0195 42.2658C27.5234 42.2658 30.3828 40.3401 30.7617 39.508C31.1445 38.6643 30.207 37.8205 29.2773 38.3713Z" fill="#795548"/>
<path d="M25.0001 2.29688H24.9844C2.54695 2.41797 7.14461 28.043 7.14461 28.043C7.14461 28.043 8.15242 30.6875 8.60945 31.8516C8.67586 32.0195 8.91804 32 8.95711 31.8242C9.43757 29.6797 11.1602 22.082 12.0313 19.7734C12.543 18.4102 13.9571 17.6211 15.3868 17.8789C17.586 18.2773 21.0899 18.7695 24.9532 18.7695H25.0391C28.9024 18.7695 32.4063 18.2773 34.6055 17.8789C36.0352 17.6211 37.4493 18.4102 37.961 19.7734C38.8282 22.0742 40.5391 29.6289 41.0235 31.8047C41.0626 31.9805 41.3087 32 41.3751 31.832L42.8477 28.0469C42.8438 28.043 47.4415 2.41797 25.0001 2.29688Z" fill="#543930"/>
<path d="M42.8438 28.043C42.8438 28.043 47.4414 2.41406 25 2.29688H24.9844C24.6367 2.30078 24.293 2.30859 23.957 2.32031C23.2891 2.34766 22.6445 2.39844 22.0235 2.47266C22.0156 2.47266 22.0117 2.47266 22.0039 2.47656C21.961 2.48047 21.9219 2.48828 21.875 2.49609C2.9883 4.87109 7.14454 28.043 7.14454 28.043L8.61329 31.832C8.6797 32 8.92189 31.9844 8.96095 31.8086C9.44533 29.6445 11.1641 22.0781 12.0313 19.7734C12.543 18.4102 13.957 17.6211 15.3867 17.8789C17.5859 18.2773 21.0899 18.7695 24.9531 18.7695H25.0391C28.9024 18.7695 32.4063 18.2773 34.6055 17.8789C36.0352 17.6211 37.4492 18.4102 37.9609 19.7734C38.832 22.0859 40.5547 29.6992 41.0313 31.832C41.0703 32.0078 41.3125 32.0273 41.375 31.8594C41.832 30.6992 42.8438 28.043 42.8438 28.043Z" fill="url(#paint0_radial_105_32)"/>
<path d="M37.1797 25.5156C37.1836 25.5117 36.0234 23.6914 33.3398 23.6914C30.6562 23.6914 29.4961 25.5117 29.4961 25.5117L29.5 25.5156C29.4062 25.6445 29.3477 25.8047 29.3477 25.9805C29.3477 26.418 29.7031 26.7773 30.1445 26.7773C30.2344 26.7773 30.457 26.7109 30.4805 26.7031C32.0859 26.0391 33.3477 26.0352 33.3477 26.0352C33.3477 26.0352 34.5977 26.0391 36.2031 26.7031C36.2227 26.7109 36.4453 26.7773 36.5391 26.7773C36.9766 26.7773 37.3359 26.4219 37.3359 25.9805C37.332 25.8047 37.2734 25.6445 37.1797 25.5156ZM20.4961 25.5156C20.5 25.5117 19.3398 23.6914 16.6563 23.6914C13.9727 23.6914 12.8125 25.5117 12.8125 25.5117L12.8164 25.5156C12.7227 25.6445 12.6641 25.8047 12.6641 25.9805C12.6641 26.418 13.0195 26.7773 13.4609 26.7773C13.5508 26.7773 13.7734 26.7109 13.793 26.7031C15.4023 26.0391 16.6602 26.0352 16.6602 26.0352C16.6602 26.0352 17.9102 26.0391 19.5156 26.7031C19.5352 26.7109 19.7578 26.7773 19.8477 26.7773C20.2852 26.7773 20.6445 26.4219 20.6445 25.9805C20.6484 25.8047 20.5898 25.6445 20.4961 25.5156Z" fill="#6D4C41"/>
<defs>
<radialGradient id="paint0_radial_105_32" cx="0" cy="0" r="1" gradientUnits="userSpaceOnUse" gradientTransform="translate(24.9938 23.5654) scale(18.8109 21.2225)">
<stop offset="0.794" stop-color="#6D4C41" stop-opacity="0"/>
<stop offset="1" stop-color="#6D4C41"/>
</radialGradient>
</defs>
</svg>
