<svg width="51" height="36" viewBox="0 0 51 36" fill="none" xmlns="http://www.w3.org/2000/svg">
<g clip-path="url(#clip0_105_29)">
<path d="M49.2895 5.93901C49.004 4.88387 48.447 3.92193 47.6741 3.14898C46.9012 2.37603 45.9393 1.81904 44.8842 1.53348C41.0213 0.47998 25.4747 0.47998 25.4747 0.47998C25.4747 0.47998 9.92734 0.511869 6.06451 1.56537C5.00936 1.85095 4.04743 2.40797 3.27451 3.18095C2.5016 3.95393 1.94466 4.91591 1.65918 5.97109C0.49076 12.8346 0.0375102 23.293 1.69126 29.8819C1.97678 30.9371 2.53372 31.899 3.30664 32.672C4.07955 33.4449 5.04146 34.0019 6.09659 34.2875C9.95943 35.341 25.5064 35.341 25.5064 35.341C25.5064 35.341 41.0532 35.341 44.9159 34.2875C45.971 34.0019 46.933 33.4449 47.7059 32.672C48.4789 31.899 49.0359 30.9371 49.3214 29.8819C50.5538 23.0087 50.9335 12.5567 49.2895 5.93901Z" fill="#FF0000"/>
<path d="M20.5264 25.4008L33.4235 17.9306L20.5264 10.4604V25.4008Z" fill="white"/>
</g>
<defs>
<clipPath id="clip0_105_29">
<rect width="49.7778" height="35" fill="white" transform="translate(0.611084 0.5)"/>
</clipPath>
</defs>
</svg>
